<svg width="201" height="59" viewBox="0 0 201 59" fill="none" xmlns="http://www.w3.org/2000/svg">
<g clip-path="url(#clip0_1004_103642)">
<path fill-rule="evenodd" clip-rule="evenodd" d="M153.329 39.9926C153.801 40.089 154.217 40.1393 155.111 40.1896L162.495 40.179C162.556 40.2348 155.163 52.5498 155.295 52.5498H159.158C159.766 52.5554 160.121 52.4913 160.52 52.13C161.316 51.4118 161.521 50.0841 161.521 50.0841L162.237 50.0822V53.7027L152.212 53.6981L159.698 41.2557H156.106C155.739 41.306 155.309 41.3563 154.981 41.6229C154.432 42.0699 154.195 43.3058 154.073 43.6638H153.329V39.9926Z" fill="white"/>
<path fill-rule="evenodd" clip-rule="evenodd" d="M111.137 39.9741C111.269 39.9741 111.892 39.994 112.313 40.0383C112.379 40.0447 112.591 40.1255 112.588 40.2528V43.8465H111.758C111.697 43.3829 111.572 42.862 111.361 42.3744C111.065 41.6935 110.16 41.1948 109.451 41.1856L107.241 41.1948C106.362 41.1814 105.047 41.7332 104.545 42.3841C104.377 42.6028 104.189 42.8773 104.073 43.1365C103.277 44.9389 103.641 48.0658 103.641 48.0658C103.641 48.1922 103.857 49.4451 104.074 50.0822C104.805 52.1822 106.747 52.5877 108.3 52.5877C108.433 52.5877 109.523 52.5319 110.082 52.3681C110.359 52.286 110.699 52.1549 110.92 52.0161C111.586 51.6 112.197 51.0741 112.197 51.0741C112.197 51.0741 112.855 51.4777 112.855 51.6032C112.855 51.7296 112.34 52.4045 112.036 52.6629C110.885 53.6658 109.222 53.8992 107.932 53.8992C104.74 53.8992 102.128 52.9563 101.64 48.6295C101.364 46.1762 101.529 45.0792 101.641 44.3849C101.792 43.4396 102.075 42.3726 102.872 41.5593C103.095 41.3327 103.376 41.0702 103.704 40.8493C104.001 40.6477 105.458 39.9732 106.925 39.9732L111.137 39.9741Z" fill="white"/>
<path fill-rule="evenodd" clip-rule="evenodd" d="M79.2453 39.9741C80.3088 39.9077 81.9782 39.9741 81.9782 39.9741L84.1503 40.1845L84.1498 43.7501L83.3808 43.7533C82.9442 41.4799 82.1408 41.1856 80.4495 41.1856C78.5609 41.1856 77.8959 41.7406 77.8959 43.5573C77.8959 43.8719 77.8888 44.6778 78.1176 44.9002C78.4253 45.1977 78.5499 45.2605 78.8263 45.355C79.1292 45.4561 79.5211 45.5123 79.8764 45.5875C81.4559 45.9418 83.6409 46.0336 84.4381 47.514C84.6578 47.9214 84.7539 48.1973 84.7934 48.7342V50.8406C84.7815 51.2595 84.5888 51.8329 84.3701 52.2311C84.1484 52.6347 83.6661 53.2285 83.1263 53.4743C82.3501 53.8397 81.4436 53.95 80.6079 53.95C80.4762 53.95 80.1242 53.9684 79.3937 53.8992C78.6569 53.8231 77.2386 53.6469 77.1064 53.6469C76.8101 53.6469 76.246 53.5878 75.9649 53.7687L75.9592 49.7169H76.7782C76.7878 49.8797 76.823 50.0103 76.8429 50.1551C77.2182 52.3625 78.5742 52.7385 80.0548 52.7385C82.3382 52.7385 82.8975 51.7804 82.8975 49.9134C82.8975 49.7874 82.9537 48.9986 82.7235 48.5885C82.2626 47.7553 81.2405 47.7309 80.4971 47.5731C80.0824 47.485 79.5968 47.4347 79.1815 47.3715C78.6488 47.2898 78.1452 47.1994 77.5992 46.9674C77.4351 46.8982 77.2539 46.7418 77.0636 46.5905C76.109 45.8334 76.0011 44.5846 76.0011 43.7584C76.0011 42.8694 76.0344 41.7295 76.8111 40.9411C77.1858 40.5563 78.022 40.0516 79.2453 39.9741Z" fill="white"/>
<path fill-rule="evenodd" clip-rule="evenodd" d="M180.912 40.1093L184.259 40.1102C184.259 40.1102 190.623 49.1946 191.362 50.0444L191.356 42.3375C191.356 41.168 190.979 40.8668 189.643 40.8659C189.636 40.8659 189.651 40.1614 189.651 40.1614H194.322V40.853C192.902 40.9863 192.59 41.2391 192.587 42.3555L192.577 53.7027H191.535L183.851 43.4848L183.843 51.8768C183.821 52.9743 185.519 52.9198 185.519 52.9198L185.527 53.6556L180.92 53.6561L180.922 52.954C180.922 52.954 182.581 52.9669 182.581 51.916L182.587 41.7876C182.587 41.031 181.244 40.7971 180.912 40.8553V40.1093Z" fill="white"/>
<path fill-rule="evenodd" clip-rule="evenodd" d="M95.9623 40.1628L101.409 40.1568C101.409 40.1568 101.413 40.8659 101.399 40.8659C100.151 40.9318 99.5893 41.1344 99.5893 42.0492V51.8768C99.5893 52.7833 100.521 52.9798 101.318 53.0665V53.6944L96.0517 53.7027C96.0517 53.7027 96.037 53.1795 96.056 53.0661C96.8883 52.9798 97.6835 52.7962 97.6916 51.8777V42.1276C97.6916 41.264 97.1247 40.942 95.9623 40.8908V40.1628Z" fill="white"/>
<path fill-rule="evenodd" clip-rule="evenodd" d="M113.334 40.1338H118.638L118.634 40.787C118.078 40.8391 116.989 40.9974 116.989 41.8909L116.987 50.7447C116.989 52.3362 118.783 52.6887 119.856 52.6887C120.817 52.6887 121.951 52.4806 122.459 51.7319C122.877 51.1151 122.898 49.9263 122.898 49.8008V41.8379C122.898 41.0753 121.733 40.7625 121.239 40.787L121.234 40.1296L125.996 40.1301V40.8004C125.996 40.8004 124.283 40.8004 124.283 41.8379V49.8926C124.217 51.605 123.923 53.0176 122.336 53.5449C121.365 53.8674 120.745 53.926 119.62 53.8992C118.232 53.8665 116.126 53.752 115.343 52.0862C115.159 51.6895 115.014 51.1931 115.013 50.7525L115.014 41.9043C115.014 40.9314 113.341 40.7745 113.341 40.7745L113.334 40.1338Z" fill="white"/>
<path fill-rule="evenodd" clip-rule="evenodd" d="M66.1605 47.9855L67.9726 43.0521L69.731 47.9855H66.1605ZM74.0886 52.8225C73.8085 52.7325 73.5374 52.5457 73.4322 52.3003C72.5371 50.27 71.7481 48.1709 71.0113 46.1462C70.2803 44.1542 69.4451 42.1124 68.8834 40.0807H67.6934C66.6571 43.4235 65.3282 46.7833 64.084 50.0813C63.8866 50.5989 63.6131 51.1516 63.3924 51.6927C63.1451 52.2966 62.4055 53.0195 61.7335 53.0453L61.7382 53.7138L66.3127 53.7156C66.3075 53.705 66.3279 52.9946 66.3127 53.0066C65.6273 52.8483 64.8397 52.9909 64.8397 52.1337C64.8397 51.4588 65.6207 49.5766 65.8281 49.1019H70.0644C70.219 49.3953 70.9995 51.3891 70.9995 52.0327C70.9995 52.8714 70.3326 52.9226 69.4794 52.9992C69.4727 53.1173 69.5008 53.7101 69.4936 53.7027H74.8686V53.0195C74.8686 53.0195 74.3749 52.9147 74.0886 52.8225Z" fill="white"/>
<path fill-rule="evenodd" clip-rule="evenodd" d="M89.2884 39.9741C90.3514 39.9077 92.0204 39.9741 92.0204 39.9741L94.193 40.1845V43.7501L93.4239 43.7533C92.9873 41.4799 92.184 41.1856 90.4922 41.1856C88.6035 41.1856 87.9391 41.7406 87.9391 43.5573C87.9391 43.8719 87.9315 44.6778 88.1612 44.9002C88.4685 45.1977 88.5931 45.2605 88.8694 45.355C89.1719 45.4561 89.5638 45.5123 89.9191 45.5875C91.4986 45.9418 93.6836 46.0336 94.4812 47.514C94.701 47.9214 94.7966 48.1973 94.8365 48.7342V50.8406C94.8237 51.2595 94.6315 51.8329 94.4127 52.2311C94.1911 52.6347 93.7088 53.2285 93.1695 53.4743C92.3928 53.8397 91.4863 53.95 90.6506 53.95C90.5188 53.95 90.1674 53.9684 89.4368 53.8992C88.6996 53.8231 87.2808 53.6469 87.1496 53.6469C86.8532 53.6469 86.2887 53.5878 86.0081 53.7687L86.0019 49.7169H86.8214C86.8309 49.8797 86.8661 50.0103 86.8856 50.1551C87.2609 52.3625 88.6173 52.7385 90.0974 52.7385C92.3814 52.7385 92.9402 51.7804 92.9402 49.9134C92.9402 49.7874 92.9963 48.9986 92.7661 48.5885C92.3048 47.7553 91.2836 47.7309 90.5393 47.5731C90.1246 47.485 89.6389 47.4347 89.2247 47.3715C88.692 47.2898 88.1878 47.1994 87.6418 46.9674C87.4782 46.8982 87.297 46.7418 87.1063 46.5905C86.1522 45.8334 86.0437 44.5846 86.0437 43.7584C86.0437 42.8694 86.077 41.7295 86.8537 40.9411C87.229 40.5563 88.0647 40.0516 89.2884 39.9741Z" fill="white"/>
<path fill-rule="evenodd" clip-rule="evenodd" d="M130.443 41.8097C130.439 41.0462 132.104 41.0845 132.281 41.0845C133.019 41.0845 133.832 41.079 134.377 41.556C134.744 41.878 134.935 42.259 134.967 42.9321V44.2317C134.967 44.6847 134.67 45.6922 133.951 46.1591C133.482 46.4636 132.959 46.4317 132.828 46.4317H130.443V41.8097ZM131.755 47.538C131.755 47.538 135.217 53.6496 135.278 53.6994H138.308L138.302 53.0771C137.911 52.9899 137.768 52.9322 137.472 52.8192C136.485 52.3196 135.113 49.6107 134.475 48.5386C134.278 48.2041 133.939 47.4923 133.939 47.4923C133.939 47.4923 135.018 47.2617 135.61 46.8386C136.266 46.3708 136.728 45.605 136.866 44.9749C136.952 44.5837 136.94 43.834 136.94 43.7081C136.94 40.9844 135.775 40.1014 133.011 40.1074H126.732V40.8986C127.202 40.9959 127.755 40.978 128.104 41.2672C128.506 41.6081 128.366 42.0491 128.437 42.4496V51.9307C128.411 52.2149 128.313 52.7795 127.746 52.8976C127.443 52.9788 127.062 52.9968 126.737 53.0559L126.74 53.7027H132.143L132.139 53.0559C132.139 53.0559 131.426 53.0157 131.075 52.8972C130.523 52.7094 130.412 52.3607 130.408 52.1771L130.412 47.538H131.755Z" fill="white"/>
<path fill-rule="evenodd" clip-rule="evenodd" d="M178.221 51.0874C177.48 52.1388 176.823 52.5858 174.716 52.5877C172.709 52.5886 171.802 51.9686 171.146 50.9038C170.486 49.709 170.598 48.8809 170.608 48.3808L170.598 44.8605C170.598 44.7345 170.602 43.8871 171.146 42.8367C171.969 41.2525 173.28 41.0412 174.903 41.0499C176.647 41.0587 177.771 41.3175 178.468 42.7582C178.989 43.8359 178.879 44.2561 178.879 44.8605V48.3818C178.879 48.5077 178.991 49.9946 178.221 51.0874ZM180.359 42.6009C180.052 41.6972 179.592 41.1025 178.688 40.5771C177.497 39.8851 176.058 39.8307 174.689 39.8228C173.011 39.815 172.306 40.0138 171.524 40.3607C170.324 40.8926 169.583 41.4707 169.144 42.4164C168.651 43.4152 168.568 44.8605 168.568 44.8605C168.568 44.8605 168.581 48.4773 168.589 48.5788C168.714 50.0227 169.248 52.2444 171.256 53.1717C171.605 53.329 172.627 53.7945 174.716 53.7986C177.151 53.8028 179.69 53.287 180.52 49.9447C180.664 49.3459 180.734 48.9164 180.745 48.2503C180.771 46.4636 180.853 44.0453 180.359 42.6009Z" fill="white"/>
<path fill-rule="evenodd" clip-rule="evenodd" d="M163.139 40.1568H168.586C168.586 40.1568 168.59 40.8659 168.576 40.8659C167.328 40.9318 166.766 41.1344 166.766 42.0492V51.8768C166.766 52.7833 167.698 52.9798 168.495 53.0665V53.6944L163.229 53.7027C163.229 53.7027 163.214 53.1795 163.233 53.0661C164.065 52.9798 164.86 52.7962 164.869 51.8777V42.1276C164.869 41.264 164.302 40.942 163.139 40.8908V40.1568Z" fill="white"/>
<path fill-rule="evenodd" clip-rule="evenodd" d="M143.215 47.9467L145.028 43.0129L146.786 47.9467H143.215ZM151.144 52.7833C150.864 52.6933 150.592 52.5065 150.488 52.2606C149.593 50.2308 148.803 48.1313 148.067 46.1074C147.337 44.1145 146.501 42.0727 145.939 40.042H144.748C143.712 43.3838 142.383 46.7445 141.139 50.0421C140.942 50.5597 140.669 51.1124 140.448 51.6535C140.201 52.2569 139.46 52.9798 138.788 53.0066L138.794 53.6999L143.368 53.7027C143.363 53.6916 143.383 52.9553 143.368 52.9669C142.682 52.8096 141.895 52.9517 141.895 52.0941C141.895 51.4191 142.676 49.5369 142.883 49.0627H147.119C147.274 49.3561 148.054 51.3495 148.054 51.993C148.054 52.8312 147.388 52.8825 146.535 52.96C146.528 53.0781 146.556 53.7101 146.549 53.7027H151.924L151.924 52.9798C151.924 52.9798 151.43 52.8751 151.144 52.7833Z" fill="white"/>
<path fill-rule="evenodd" clip-rule="evenodd" d="M194.948 40.1716L200.396 40.1642C200.396 40.1642 200.399 40.8391 200.386 40.8396C199.138 40.906 198.576 41.1076 198.576 42.0224V51.8505C198.576 52.757 199.508 52.9539 200.304 53.0402V53.6685L195.044 53.6764C195.044 53.6764 195.044 53.0453 195.042 53.0402C195.874 52.9539 196.67 52.7699 196.678 51.8514V42.1013C196.678 41.2377 196.111 40.9157 194.948 40.8645V40.1716Z" fill="white"/>
<path fill-rule="evenodd" clip-rule="evenodd" d="M134.465 25.6985L136.395 20.832L138.155 25.6985H134.465ZM144.117 31.3031C143.348 30.2656 139.376 19.2468 138.524 17.1963C138.326 16.7192 137.984 15.255 137.984 15.255H135.544C135.544 15.255 135.43 15.9659 134.749 17.8795C134.012 19.9499 130.33 29.3083 129.753 30.4552C128.844 32.2603 127.539 32.2603 127.539 32.2603V33.9548H134.465V32.2603C134.465 32.2603 133.443 32.2603 132.932 31.8774C132.34 31.4341 132.592 30.7836 132.592 30.7836L133.783 27.6674H138.894L139.944 30.7569C139.944 30.7569 140.369 31.4678 139.716 31.8774C139.241 32.1759 137.984 32.2603 137.984 32.2603V33.9548H146.104V32.2603C146.104 32.2603 144.826 32.2603 144.117 31.3031Z" fill="white"/>
<path fill-rule="evenodd" clip-rule="evenodd" d="M81.8902 33.9548H95.6869V28.7612H93.9219C93.813 30.3468 93.5628 31.6966 91.3108 31.6966H89.6813C88.0485 31.6966 87.795 31.2892 87.795 29.7433V18.959C87.7955 17.4421 88.2169 16.9291 90.1883 16.9291L90.2283 15.255H81.8902V16.9504C83.8616 16.9504 84.5589 17.3877 84.5023 18.959V29.7433C84.5023 31.8585 83.8616 32.2654 81.8902 32.2654V33.9548Z" fill="white"/>
<path fill-rule="evenodd" clip-rule="evenodd" d="M112.436 33.9548H126.346V28.7612H124.472C124.388 30.4695 123.791 31.7137 122.206 31.6966H119.616C118.151 31.6966 117.943 31.7137 117.926 30.6185V25.4429H123.885C123.848 25.4064 123.801 23.265 123.885 23.1838H117.926V19.3958C117.926 17.8776 118.236 17.4435 119.616 17.4435H121.418C123.791 17.4966 123.678 18.9853 123.791 20.45H125.664V15.255H112.436V16.8742C114.407 16.8742 114.764 17.4966 114.829 18.959V30.6185C114.764 31.7137 114.407 32.2654 112.436 32.2654V33.9548Z" fill="white"/>
<path fill-rule="evenodd" clip-rule="evenodd" d="M147.58 33.9548H154.633V32.2654C152.634 32.2654 152.236 31.8594 152.236 29.7443V21.2153L161.56 33.9548H164.234V18.959C164.272 17.7701 164.6 16.8742 166.627 16.8742V15.3219H159.446V16.8742C161.417 16.8742 161.831 17.3877 161.831 18.9733V27.8312C161.831 27.8312 153.206 15.8155 153.371 16.1301C153.536 16.4438 152.918 15.255 152.918 15.255L147.619 15.3219V16.9504C149.59 16.9504 150.012 17.7185 150.012 19.8336V29.7433C150.012 31.8585 149.551 32.2654 147.58 32.2654V33.9548Z" fill="white"/>
<path fill-rule="evenodd" clip-rule="evenodd" d="M167.622 33.9548H180.623V29.0417H178.806C178.553 31.2385 177.16 31.7676 176.365 31.7676H171.185L180.258 17.169L181.419 15.255H168.814L167.622 14.9814V20.6686H169.552C169.666 18.9188 170.177 17.7701 171.993 17.4966H176.161L166.032 33.9548H167.622Z" fill="white"/>
<path fill-rule="evenodd" clip-rule="evenodd" d="M68.8321 25.633L70.7621 20.7669L72.5224 25.633H68.8321ZM78.4838 31.2376C77.7147 30.1996 73.7433 19.1813 72.8919 17.1307C72.6936 16.6537 72.3516 15.1895 72.3516 15.1895H69.9108C69.9108 15.1895 69.7976 15.9004 69.116 17.8144C68.3788 19.8844 64.6975 29.2428 64.1196 30.3906C63.2112 32.1948 61.9056 32.1948 61.9056 32.1948V33.8897H68.8321V32.1948C68.8321 32.1948 67.81 32.1948 67.2992 31.8119C66.7075 31.3686 66.9586 30.7186 66.9586 30.7186L68.1505 27.6014H73.2606L74.3107 30.6904C74.3107 30.6904 74.7369 31.4013 74.0838 31.8119C73.6082 32.1104 72.3516 32.1948 72.3516 32.1948V33.8897H80.4709V32.1948C80.4709 32.1948 79.1939 32.1948 78.4838 31.2376Z" fill="white"/>
<path fill-rule="evenodd" clip-rule="evenodd" d="M97.1627 33.9548H110.96V28.7612H109.194C109.086 30.3468 108.836 31.6966 106.583 31.6966H104.954C103.321 31.6966 103.068 31.2892 103.068 29.7433V18.959C103.068 17.4421 103.49 16.9291 105.461 16.9291L105.501 15.255H97.1627V16.9504C99.1342 16.9504 99.8319 17.3877 99.7748 18.959V29.7433C99.7748 31.8585 99.1342 32.2654 97.1627 32.2654V33.9548Z" fill="white"/>
<path fill-rule="evenodd" clip-rule="evenodd" d="M188.794 25.9213L190.724 21.0548L192.484 25.9213H188.794ZM198.15 31.3165C197.38 30.2785 193.409 19.2588 192.558 17.2087C192.359 16.7312 192.018 15.2674 192.018 15.2674H189.577C189.577 15.2674 189.463 15.9783 188.782 17.8924C188.045 19.9619 184.363 29.3208 183.785 30.4686C182.877 32.2728 181.571 32.2728 181.571 32.2728V33.9682H188.498V32.2728C188.498 32.2728 187.476 32.2728 186.965 31.8899C186.373 31.447 186.625 30.7966 186.625 30.7966L187.817 27.6794H192.927L193.977 30.7689C193.977 30.7689 194.403 31.4793 193.749 31.8899C193.274 32.1884 192.018 32.2728 192.018 32.2728V33.9682H200.137V32.2728C200.137 32.2728 198.859 32.2728 198.15 31.3165Z" fill="white"/>
<path fill-rule="evenodd" clip-rule="evenodd" d="M46.9075 56.9739H10.7624C5.98341 56.9739 2.07382 53.2663 2.07382 48.5469V10.454C2.07382 5.81861 5.98341 2.02653 10.7624 2.02653H46.9075C51.7735 2.02653 55.7706 5.81861 55.7706 10.454V48.5469C55.7706 53.2663 51.8601 56.9739 46.9075 56.9739ZM10.7624 58.5C5.12491 58.5 0.5 54.1193 0.5 48.5469V10.454C0.5 4.97577 5.11445 0.5 10.7624 0.5H46.9075C52.6116 0.5 57.344 4.9467 57.344 10.454V48.5469C57.344 54.1386 52.6986 58.5 46.9075 58.5H10.7624Z" fill="white"/>
<path fill-rule="evenodd" clip-rule="evenodd" d="M49.8254 53.3761C49.3094 53.1256 47.8878 53.2095 47.5439 53.2095C47.5439 53.2926 46.7696 54.2106 46.7696 54.2106L47.1996 55.2943C47.2856 55.3782 50.0837 55.1277 50.8575 54.2106C50.6858 53.7096 50.1698 53.6261 49.8254 53.3761Z" fill="white"/>
<path fill-rule="evenodd" clip-rule="evenodd" d="M36.0173 9.40632C35.6729 9.40632 35.329 9.57378 34.9847 9.99082C34.813 10.4079 34.813 10.9919 35.1569 11.4929C35.9307 12.2435 37.2215 12.16 38.1675 12.0769C38.1675 10.7419 37.3937 9.49028 36.0173 9.40632Z" fill="white"/>
<path fill-rule="evenodd" clip-rule="evenodd" d="M35.7643 53.0425C35.2477 54.0432 34.3878 54.7942 33.4413 55.4613H41.2643L42.1247 53.5426C40.1457 53.5426 37.9145 53.4596 35.7643 53.0425Z" fill="white"/>
<path fill-rule="evenodd" clip-rule="evenodd" d="M19.0715 38.1081C19.1576 38.1081 17.6089 40.1102 16.9207 41.3623C16.8351 41.5288 17.0068 42.3633 17.2646 42.9478C17.6089 42.9478 18.2972 42.8639 18.5549 42.6134C18.8127 41.7793 18.3828 40.5277 18.5549 40.1942C20.0175 38.6921 21.3934 37.8576 22.856 36.523C22.856 36.523 20.3618 37.6076 19.0715 38.1081Z" fill="white"/>
<path fill-rule="evenodd" clip-rule="evenodd" d="M44.3401 16.1135L44.5127 15.7791L44.8133 16.0125C45.0212 16.1735 45.249 16.3553 45.4882 16.5061C45.7208 16.6533 45.9363 16.7529 46.1322 16.7847L46.7296 16.8812C46.7296 16.8812 45.0645 18.911 44.2074 18.2121C44.1032 18.1272 43.9677 17.9667 43.9677 17.9667C43.8664 17.3799 44.0657 16.6454 44.3401 16.1135ZM8.28681 37.5365L24.9206 29.5468C25.1784 30.1309 25.5227 30.1821 25.6949 30.7661C22.942 32.6848 19.8453 34.2703 16.9207 36.189L14.2544 40.3607C13.7379 41.6123 14.0822 44.5325 14.0822 44.699C14.1678 44.8665 14.3405 45.2 14.5983 45.0335C14.8565 45.0335 16.2325 43.5314 16.2325 43.6149C16.1464 42.7804 15.8021 42.1133 15.6304 41.3623C16.5768 39.8602 17.5228 38.3586 18.7271 37.0235C18.7271 37.0235 27.4152 33.6028 27.8452 33.2688C28.3612 33.1858 28.443 33.1899 28.5334 33.2688C36.314 40.0913 40.9879 35.5583 42.5456 38.6686C44.0424 41.6566 46.2535 42.9478 48.4043 45.5336C48.8337 46.6186 48.3177 47.7867 48.0599 48.7042C45.9092 50.7069 42.9846 52.709 42.4685 55.4613H46.2535L45.737 53.8761L49.3498 49.3718C50.1241 48.7882 50.9845 48.3707 51.2423 47.4527L49.8663 40.8617C49.8663 40.7778 49.8663 40.3607 50.0385 40.1942C50.1241 40.0277 53.9956 36.3555 54.1668 33.2688C54.339 31.3497 53.6508 29.5145 52.0166 28.1795C50.2963 26.3439 46.8556 27.1779 44.6188 26.4274C44.1889 26.0934 44.7049 25.5928 44.791 25.0923C44.8771 23.9242 44.4471 22.5896 44.4471 21.4211C44.6188 20.67 45.4792 20.754 46.0813 20.42C47.5439 19.6694 49.6941 19.4512 50.0385 17.6156L53.9956 15.6969V14.3291C52.5326 14.9136 51.2423 15.6642 49.8663 16.2487C49.092 15.0802 47.8877 14.2461 46.9413 13.245C45.6514 12.0769 44.361 11.5759 42.4685 11.6594C40.6621 10.3244 40.49 7.82168 38.2536 6.98715C36.8772 6.40311 35.5007 6.32007 34.4686 7.32115C33.8665 7.90518 33.4366 8.65576 33.5226 9.40633C33.5226 9.65683 33.6082 9.65683 33.7804 9.74033L34.2965 9.24026C35.0708 8.57272 36.275 8.15522 37.135 8.57272C38.4258 9.24026 39.4579 10.6584 39.2857 12.0769C39.114 13.495 37.135 13.1615 36.275 14.1626C35.0708 15.2476 35.9307 16.9158 36.1029 18.2508C36.189 19.5024 36.6189 21.0875 36.0173 22.2556C35.759 22.5061 35.4151 22.4226 35.1569 22.0891C33.0922 18.6683 33.35 14.3291 31.5441 10.8254C30.3398 9.07279 28.3612 8.57272 26.5548 8.40572C25.6083 8.32222 25.4367 6.06911 25.0067 6.32007C24.7556 6.64438 24.7484 8.07541 24.7484 8.07541C24.4046 7.73818 24.1463 6.65361 23.888 6.98715C23.2859 8.07172 24.4046 9.49029 23.1998 10.4914C23.0281 12.494 21.0495 13.8286 20.2752 15.6642C20.0175 16.2487 20.3618 16.9158 20.7057 17.5833C21.1356 17.7498 21.6522 17.2493 21.9099 17.5833C22.5977 17.6668 23.1142 17.3333 23.5442 16.7488C24.7484 16.4987 25.8666 15.8312 27.0709 15.3307C27.157 15.7482 27.243 16.2487 27.157 16.7488C26.4687 20.5035 24.3185 24.0077 24.7484 28.0129L24.5767 28.3465L8.27064 35.9528C8.19359 35.02 8.5698 34.0383 8.96647 33.2688C9.5686 32.1842 10.7729 31.7672 11.9771 31.5167C13.267 31.1001 14.9878 31.7672 15.7621 30.2656C15.7621 30.1821 15.8477 30.0986 15.7621 30.0986C14.3857 29.6815 13.267 29.7646 11.8054 29.598C11.4611 29.3475 11.5472 28.9305 11.8054 28.847C13.267 27.8459 14.9017 27.6789 16.4503 26.8444C16.4503 26.4274 16.2777 25.7603 16.106 25.5928C14.5578 25.7603 13.1814 25.9268 11.6328 25.9268L7.93438 24.3417C5.86972 24.0912 4.25499 25.9785 3.64478 27.6789V44.3659L4.14941 44.8665C4.40719 46.2011 4.49328 47.6197 4.83763 49.0382C5.1815 49.9558 6.1275 50.7904 7.16007 50.9569C8.10607 52.5415 9.05208 54.0431 10.6007 55.4613H31.5036C34.3421 53.7096 35.6325 51.2074 36.1485 48.3707C36.6646 45.0335 35.2886 41.7793 32.1058 39.8602C30.2133 38.7761 27.6326 38.6086 25.4823 39.2762C23.3316 40.1942 21.4391 42.1963 21.0091 44.3659C20.6648 46.4516 20.7509 48.7882 22.2134 50.3729C23.8481 50.7904 25.9984 50.7904 27.3748 49.5388C26.6866 48.5377 25.9984 47.3696 26.5144 46.0346C26.7722 45.4505 27.3748 45.2835 27.9765 45.5336C28.7508 45.7841 29.0951 46.5351 29.1812 47.2861C29.2668 48.5377 28.7508 49.7058 27.8048 50.4568C25.8262 52.125 22.9877 51.6244 20.7509 50.9569C14.8161 49.2887 8.28681 44.9901 8.28681 37.5365Z" fill="white"/>
</g>
<defs>
<clipPath id="clip0_1004_103642">
<rect width="200" height="58" fill="white" transform="translate(0.5 0.5)"/>
</clipPath>
</defs>
</svg>
