<svg width="18" height="19" viewBox="0 0 18 19" fill="none" xmlns="http://www.w3.org/2000/svg">
<g clip-path="url(#clip0_48_90138)">
<path d="M10.4676 9.58257C10.2347 9.58194 10.0095 9.49915 9.83163 9.34878C9.65378 9.19842 9.53469 8.99011 9.49534 8.76056L9.44735 8.48039C9.41274 8.27899 9.43218 8.07201 9.50371 7.88058L10.8959 4.16873C10.9308 4.07553 10.9777 3.98726 11.0353 3.9061L12.6559 1.62524C12.6934 1.57214 12.7411 1.52697 12.7961 1.49232C12.8511 1.45766 12.9125 1.43421 12.9766 1.42328C13.0407 1.41236 13.1063 1.41419 13.1698 1.42867C13.2332 1.44315 13.2931 1.46999 13.3461 1.50766C13.3991 1.54533 13.4442 1.59308 13.4787 1.64819C13.5133 1.7033 13.5366 1.76468 13.5474 1.82881C13.5582 1.89295 13.5562 1.95859 13.5416 2.02196C13.527 2.08534 13.5 2.14521 13.4623 2.19815L11.8421 4.47852C11.834 4.49001 11.8274 4.50245 11.8224 4.51555L10.4302 8.22742C10.4202 8.25458 10.4174 8.28389 10.4222 8.31244L10.4705 8.59341L15.9246 4.66483C16.0311 4.58841 16.1635 4.55737 16.2929 4.5785C16.4222 4.59964 16.5379 4.67124 16.6145 4.77758C16.6911 4.88392 16.7224 5.01631 16.7015 5.1457C16.6806 5.27508 16.6092 5.39088 16.503 5.46768L11.0353 9.40577C10.868 9.52001 10.6702 9.58159 10.4676 9.58257Z" fill="#C21B17"/>
<path d="M11.2481 12.7553C11.1665 12.7552 11.0863 12.7349 11.0144 12.6963C10.9425 12.6577 10.8814 12.6019 10.8363 12.5339C10.7912 12.4659 10.7636 12.3878 10.7561 12.3066C10.7485 12.2254 10.7611 12.1435 10.7928 12.0684L12.9128 7.03903C12.9378 6.97897 12.9745 6.92445 13.0207 6.8786C13.0669 6.83275 13.1217 6.79647 13.1819 6.77184C13.2422 6.7472 13.3067 6.7347 13.3718 6.73505C13.4368 6.7354 13.5012 6.7486 13.5612 6.77388C13.6212 6.79916 13.6756 6.83603 13.7213 6.88238C13.7669 6.92872 13.803 6.98363 13.8275 7.04396C13.8519 7.10428 13.8642 7.16883 13.8636 7.23392C13.863 7.299 13.8496 7.36332 13.8241 7.42321L11.7041 12.4525C11.6664 12.5423 11.603 12.6189 11.5218 12.6728C11.4407 12.7266 11.3455 12.7553 11.2481 12.7553Z" fill="#C21B17"/>
<path d="M9.51913 17.9014C9.41804 17.9014 9.31939 17.8704 9.23644 17.8126C9.15348 17.7548 9.09019 17.6731 9.05507 17.5783L7.40074 13.1067C7.30941 12.8621 7.30408 12.5936 7.38561 12.3455C7.46714 12.0975 7.63069 11.8845 7.84934 11.7418L8.76394 11.1426C8.9423 11.0459 9.14074 10.9922 9.34351 10.9857C9.54627 10.9791 9.74776 11.02 9.93199 11.1049L14.609 13.4826C14.6669 13.512 14.7184 13.5525 14.7607 13.6019C14.8029 13.6512 14.835 13.7084 14.8551 13.7702C14.8752 13.8319 14.883 13.897 14.878 13.9618C14.8729 14.0266 14.8552 14.0897 14.8257 14.1476C14.7963 14.2055 14.7558 14.257 14.7064 14.2992C14.6571 14.3415 14.5999 14.3736 14.5381 14.3937C14.4764 14.4138 14.4113 14.4216 14.3465 14.4165C14.2817 14.4115 14.2186 14.3938 14.1607 14.3643L9.49981 11.9946C9.46002 11.9786 9.4173 11.9712 9.37445 11.9729C9.3316 11.9746 9.28959 11.9853 9.25119 12.0044L8.39295 12.5685C8.36169 12.5889 8.33831 12.6195 8.32667 12.655C8.31502 12.6905 8.3158 12.7289 8.32886 12.7639L9.98319 17.235C10.0108 17.3098 10.0199 17.3902 10.0097 17.4693C9.99959 17.5483 9.9705 17.6238 9.92494 17.6892C9.87938 17.7547 9.81869 17.8081 9.74804 17.8451C9.67739 17.882 9.59886 17.9014 9.51913 17.9015V17.9014Z" fill="#C21B17"/>
<path d="M5.35268 17.4655C5.2679 17.4654 5.18457 17.4436 5.11067 17.402C5.03678 17.3605 4.97479 17.3007 4.93066 17.2283C4.88654 17.1559 4.86174 17.0734 4.85867 16.9887C4.85559 16.9039 4.87433 16.8199 4.91309 16.7445L6.96514 12.7561C6.98433 12.7194 6.98892 12.6769 6.97799 12.6369C6.96706 12.597 6.94141 12.5627 6.9062 12.5409L3.66195 10.5131C3.62964 10.4925 3.59105 10.4841 3.5531 10.4894L1.27691 10.7836C1.14679 10.8005 1.01531 10.7649 0.9114 10.6848C0.807491 10.6047 0.739663 10.4866 0.722837 10.3564C0.706011 10.2263 0.741565 10.0948 0.821678 9.99093C0.901792 9.88702 1.0199 9.81919 1.15003 9.80236L3.42654 9.50818C3.69121 9.47438 3.95944 9.53296 4.18592 9.67403L7.43049 11.7019C7.67476 11.8565 7.85259 12.0966 7.92919 12.3753C8.00578 12.654 7.97563 12.9513 7.84464 13.2089L5.79291 17.1969C5.7513 17.2778 5.6882 17.3457 5.61053 17.3931C5.53287 17.4405 5.44365 17.4655 5.35268 17.4655Z" fill="#C21B17"/>
<path d="M7.2092 10.6514C7.1786 10.6514 7.14737 10.65 7.11613 10.6469L3.69701 10.4629C3.63214 10.4594 3.56859 10.4431 3.50999 10.415C3.4514 10.387 3.39891 10.3476 3.35552 10.2993C3.26789 10.2016 3.22264 10.0731 3.22973 9.94212C3.23324 9.87725 3.24949 9.8137 3.27756 9.75511C3.30563 9.69651 3.34497 9.64402 3.39332 9.60063C3.44168 9.55724 3.4981 9.5238 3.55938 9.50222C3.62066 9.48063 3.6856 9.47133 3.75047 9.47484L7.20759 9.66259C7.2091 9.53421 7.20286 9.40586 7.18891 9.27823L3.39332 4.34037C3.35356 4.28887 3.32435 4.23004 3.30736 4.16724C3.29036 4.10443 3.28592 4.0389 3.2943 3.97438C3.30267 3.90986 3.32368 3.84762 3.35614 3.79124C3.3886 3.73485 3.43186 3.68542 3.48344 3.64578C3.53503 3.60614 3.59393 3.57706 3.65677 3.56021C3.71961 3.54336 3.78516 3.53908 3.84966 3.5476C3.91416 3.55612 3.97635 3.57727 4.03266 3.60986C4.08897 3.64245 4.1383 3.68582 4.17782 3.7375L8.01978 8.73624C8.07968 8.8087 8.21139 8.96827 8.19626 9.72877L8.19304 9.77563C8.16384 10.0164 8.04778 10.2382 7.86663 10.3995C7.68549 10.5607 7.45172 10.6503 7.2092 10.6514ZM7.22852 9.32992C7.234 9.33718 7.23947 9.34474 7.24591 9.35247L7.22852 9.32992Z" fill="#C21B17"/>
<path d="M3.72375 10.4636C3.64072 10.4635 3.55907 10.4424 3.48629 10.4025C3.41351 10.3625 3.35195 10.3049 3.30728 10.2349C3.2626 10.165 3.23624 10.0849 3.23063 10.002C3.22501 9.91919 3.24032 9.83628 3.27514 9.76091L5.23348 5.5341L7.86907 7.11564C7.89287 7.12996 7.91991 7.13803 7.94767 7.1391C7.97542 7.14017 8.003 7.13421 8.02784 7.12176L8.57015 6.8506C8.59059 6.84035 8.60868 6.82599 8.62329 6.80842L11.0093 3.9453C11.0509 3.8954 11.1019 3.85418 11.1594 3.82399C11.217 3.7938 11.2799 3.77524 11.3446 3.76936C11.4093 3.76349 11.4745 3.77041 11.5365 3.78974C11.5985 3.80907 11.6561 3.84043 11.706 3.88202C11.7559 3.92361 11.7972 3.97463 11.8274 4.03215C11.8575 4.08968 11.8761 4.15259 11.882 4.21728C11.8879 4.28198 11.8809 4.3472 11.8616 4.40923C11.8423 4.47125 11.8109 4.52886 11.7693 4.57876L9.38331 7.44203C9.28136 7.56439 9.15515 7.66429 9.01265 7.73542L8.47033 8.00657C8.29682 8.09402 8.10394 8.13597 7.90978 8.12851C7.71562 8.12105 7.52654 8.06441 7.36025 7.9639L5.66824 6.94883L4.173 10.1767C4.13331 10.2624 4.06992 10.3349 3.99031 10.3858C3.91071 10.4366 3.81821 10.4636 3.72375 10.4636Z" fill="#C21B17"/>
<path d="M13.3693 7.7261C13.3365 7.72609 13.3039 7.7228 13.2717 7.71628L10.7975 7.22146C10.7337 7.20884 10.673 7.18376 10.6189 7.14765C10.5648 7.11155 10.5184 7.06514 10.4823 7.01107C10.4462 6.957 10.421 6.89634 10.4084 6.83256C10.3957 6.76877 10.3958 6.70312 10.4085 6.63935C10.4213 6.57558 10.4465 6.51496 10.4827 6.46094C10.5189 6.40692 10.5654 6.36057 10.6195 6.32454C10.6736 6.28852 10.7343 6.26352 10.7982 6.25098C10.862 6.23844 10.9276 6.23861 10.9914 6.25147L13.4656 6.74629C13.5859 6.77037 13.693 6.83829 13.766 6.93688C13.8391 7.03546 13.8729 7.15767 13.8609 7.27978C13.8489 7.40188 13.7919 7.51517 13.7011 7.59765C13.6102 7.68013 13.492 7.72591 13.3693 7.7261H13.3693Z" fill="#C21B17"/>
</g>
<defs>
<clipPath id="clip0_48_90138">
<rect width="16.4886" height="16.4886" fill="white" transform="translate(0.702148 1.41602)"/>
</clipPath>
</defs>
</svg>
