<svg width="18" height="19" viewBox="0 0 18 19" fill="none" xmlns="http://www.w3.org/2000/svg">
<g clip-path="url(#clip0_48_126846)">
<path d="M3.36788 17.8951C3.30508 17.8951 3.24207 17.8928 3.17884 17.8881C2.83628 17.8618 2.50292 17.7647 2.19993 17.6027C1.89695 17.4407 1.63097 17.2175 1.41888 16.9472C1.00536 16.4351 0.799977 15.7861 0.843666 15.1293C0.887355 14.4726 1.17691 13.8564 1.65461 13.4036L2.71574 12.3885L8.28383 7.43263C8.16951 6.27376 8.07965 4.29707 8.6632 3.4261L8.71923 3.34414C9.26887 2.54703 10.0642 1.9516 10.9838 1.64866C11.9034 1.34573 12.8969 1.35192 13.8127 1.66631C13.9876 1.72648 14.1442 1.83041 14.2677 1.9682C14.3911 2.10599 14.4773 2.27306 14.5179 2.45354C14.557 2.62098 14.5566 2.79521 14.5167 2.96245C14.4767 3.12969 14.3985 3.28534 14.288 3.41709L14.2497 3.46007L12.89 4.88317V5.06561L13.7196 5.93223L13.8716 5.92965L15.2287 4.53134C15.3586 4.3976 15.5208 4.29971 15.6997 4.24721C15.8786 4.1947 16.068 4.18935 16.2496 4.23168C16.4302 4.27567 16.5967 4.36493 16.7333 4.49105C16.87 4.61717 16.9722 4.77599 17.0305 4.95256C17.1858 5.42402 17.2648 5.91728 17.2643 6.41367C17.2747 7.61704 16.8075 8.77541 15.965 9.63472C15.1225 10.494 13.9736 10.9841 12.7702 10.9975C12.6823 10.9975 12.4794 10.9975 11.3175 10.6371L5.75003 16.5871L5.06021 17.2232C4.60161 17.6535 3.99675 17.8936 3.36788 17.8951ZM12.3738 2.41522C11.8144 2.41433 11.2632 2.54986 10.7681 2.81008C10.2729 3.07029 9.84863 3.44733 9.53207 3.90853L9.48216 3.98131C9.19328 4.41252 9.10924 5.79344 9.27639 7.41315C9.28979 7.54396 9.2719 7.67609 9.2242 7.79863C9.1765 7.92117 9.10034 8.03062 9.00202 8.11794L3.38654 13.1155L2.33862 14.1185C2.04054 14.401 1.85984 14.7854 1.83257 15.1951C1.80529 15.6048 1.93343 16.0098 2.19144 16.3292C2.31854 16.4936 2.47875 16.6295 2.6617 16.7281C2.84466 16.8267 3.04628 16.8858 3.2535 16.9015C3.46073 16.9172 3.66895 16.8892 3.86467 16.8193C4.0604 16.7494 4.23927 16.6392 4.3897 16.4959L5.06598 15.8722L10.6631 9.88836C10.7693 9.77386 10.9059 9.69186 11.0569 9.65189C11.2079 9.61193 11.3672 9.61565 11.5162 9.66261C11.9297 9.80572 12.3523 9.92126 12.7811 10.0085C13.7205 9.99294 14.6154 9.606 15.2701 8.93233C15.9249 8.25865 16.2862 7.35307 16.275 6.41369C16.2754 6.02263 16.2133 5.63402 16.0911 5.26255C16.0862 5.24623 16.0773 5.23142 16.0651 5.2195C16.053 5.20759 16.038 5.19896 16.0215 5.19444C16.0069 5.19109 15.9915 5.19164 15.9771 5.19605C15.9627 5.20046 15.9497 5.20856 15.9394 5.21956L14.5356 6.66569C14.4601 6.74415 14.3697 6.80683 14.2698 6.85012C14.1698 6.8934 14.0623 6.91642 13.9534 6.91785L13.6645 6.92268C13.5509 6.92428 13.4381 6.90254 13.3332 6.85881C13.2283 6.81507 13.1334 6.75028 13.0546 6.66842L12.1309 5.70343C11.9827 5.5491 11.9001 5.34323 11.9007 5.12923V4.8199C11.9003 4.60634 11.9824 4.40089 12.13 4.24651L13.5428 2.76656C13.5582 2.73966 13.5623 2.70779 13.5544 2.67785C13.551 2.66073 13.5433 2.64475 13.532 2.63142C13.5208 2.61809 13.5063 2.60786 13.49 2.60169C13.1309 2.47775 12.7536 2.41472 12.3738 2.41522ZM13.8255 5.977L13.8252 5.97733L13.8255 5.977Z" fill="#C21B17"/>
</g>
<defs>
<clipPath id="clip0_48_126846">
<rect width="16.4886" height="16.4886" fill="white" transform="translate(0.809082 1.41602)"/>
</clipPath>
</defs>
</svg>
