<svg width="18" height="19" viewBox="0 0 18 19" fill="none" xmlns="http://www.w3.org/2000/svg">
<g clip-path="url(#clip0_48_90132)">
<path d="M15.5396 8.13326V15.7939C15.5396 16.2946 15.3406 16.7749 14.9865 17.129C14.6325 17.4831 14.1522 17.682 13.6514 17.682H4.84026C4.3395 17.682 3.85925 17.4831 3.50516 17.129C3.15107 16.7749 2.95215 16.2946 2.95215 15.7939V3.20647C2.95215 2.70571 3.15107 2.22546 3.50516 1.87137C3.85925 1.51728 4.3395 1.31836 4.84026 1.31836H8.72466C9.05838 1.31841 9.37842 1.45098 9.61443 1.68693L15.171 7.24349C15.4069 7.4795 15.5395 7.79954 15.5396 8.13326Z" stroke="#C5281C" stroke-width="1.28116" stroke-linejoin="round"/>
<path d="M9.24597 1.633V6.35328C9.24597 6.68711 9.37859 7.00728 9.61465 7.24334C9.85071 7.4794 10.1709 7.61202 10.5047 7.61202H15.225M6.09912 10.7589H12.3928M6.09912 13.9057H12.3928" stroke="#C5281C" stroke-width="1.28116" stroke-linecap="round" stroke-linejoin="round"/>
</g>
<defs>
<clipPath id="clip0_48_90132">
<rect width="18" height="18" fill="white" transform="translate(0 0.5)"/>
</clipPath>
</defs>
</svg>
