<svg width="18" height="19" viewBox="0 0 18 19" fill="none" xmlns="http://www.w3.org/2000/svg">
<g clip-path="url(#clip0_48_90126)">
<path d="M7.40912 12.9455C7.38868 12.9456 7.36826 12.9445 7.34794 12.9422C5.79355 12.7686 4.35241 12.0451 3.28458 10.9023C2.26247 9.76059 1.69654 8.28251 1.69482 6.75014V2.53174C1.69488 2.3139 1.75559 2.10038 1.87015 1.91509C1.98471 1.72981 2.1486 1.58008 2.34345 1.48268L4.0306 0.639291C4.15871 0.575236 4.30702 0.564696 4.44291 0.60999C4.57879 0.655285 4.69111 0.752704 4.75517 0.880815C4.81923 1.00893 4.82977 1.15724 4.78447 1.29312C4.73918 1.429 4.64176 1.54133 4.51365 1.60538L2.8265 2.44877C2.81089 2.45642 2.79773 2.4683 2.78853 2.48305C2.77963 2.49774 2.77489 2.51457 2.77482 2.53174V6.74926C2.77622 8.01621 3.2443 9.23824 4.08966 10.1819C4.97889 11.1292 6.17736 11.7275 7.46888 11.8689C7.60591 11.8844 7.73183 11.9517 7.82081 12.057C7.9098 12.1623 7.95512 12.2977 7.94748 12.4354C7.93984 12.5731 7.87981 12.7027 7.77971 12.7975C7.67961 12.8924 7.54702 12.9453 7.40912 12.9455L7.40912 12.9455Z" fill="#C21B17"/>
<path d="M11.8208 18.4683C10.6358 18.4675 9.49004 18.0435 8.58995 17.2728C8.03521 16.7878 7.5925 16.1881 7.2925 15.5151C6.99251 14.8421 6.84238 14.1119 6.85253 13.3752V12.6587C6.85263 12.4601 6.9239 12.2681 7.05342 12.1176C7.18293 11.967 7.36212 11.8679 7.55847 11.8382C8.77118 11.6465 9.87584 11.0288 10.6741 10.0959C11.4723 9.16305 11.9118 7.97617 11.9136 6.74841V2.53177C11.9135 2.51455 11.9086 2.4977 11.8996 2.48308C11.8905 2.46833 11.8775 2.45645 11.8619 2.4488L10.1748 1.6054C10.1111 1.57384 10.0543 1.53001 10.0075 1.47644C9.96082 1.42286 9.92513 1.36059 9.90253 1.29319C9.87993 1.22579 9.87086 1.1546 9.87583 1.08368C9.88081 1.01277 9.89973 0.943538 9.93152 0.879957C9.96332 0.816375 10.0073 0.759695 10.0611 0.713168C10.1148 0.666641 10.1772 0.631182 10.2447 0.608825C10.3122 0.586468 10.3834 0.577653 10.4543 0.582886C10.5252 0.588119 10.5944 0.607296 10.6578 0.639318L12.345 1.48272C12.5397 1.58027 12.7035 1.73003 12.818 1.91528C12.9326 2.10053 12.9934 2.31397 12.9936 2.53177V6.74929C12.9917 8.19829 12.4856 9.60147 11.5622 10.7181C10.6387 11.8347 9.35544 12.5951 7.93253 12.8689V13.3752C7.92262 13.9555 8.03891 14.5311 8.27333 15.0621C8.50776 15.5931 8.85474 16.0668 9.29027 16.4505C9.99489 17.0548 10.8925 17.387 11.8208 17.387C12.7491 17.387 13.6467 17.0548 14.3514 16.4505C14.7869 16.0668 15.1339 15.5931 15.3683 15.0621C15.6027 14.5311 15.719 13.9555 15.7091 13.3752V11.7462C15.7091 11.603 15.766 11.4656 15.8673 11.3644C15.9685 11.2631 16.1059 11.2062 16.2491 11.2062C16.3923 11.2062 16.5297 11.2631 16.6309 11.3644C16.7322 11.4656 16.7891 11.603 16.7891 11.7462V13.3752C16.7992 14.1119 16.6491 14.8421 16.3491 15.5151C16.0491 16.1881 15.6064 16.7878 15.0517 17.2728C14.1516 18.0435 13.0058 18.4675 11.8208 18.4683Z" fill="#C21B17"/>
<path d="M16.2491 12.2857C15.7704 12.2855 15.3113 12.0953 14.9728 11.7568C14.6343 11.4183 14.444 10.9592 14.4439 10.4804C14.4432 10.2432 14.4897 10.0083 14.5805 9.78915C14.6713 9.57004 14.8047 9.37112 14.973 9.20392C15.3121 8.8664 15.7707 8.67638 16.2491 8.67517C16.4864 8.67484 16.7214 8.72129 16.9408 8.81186C17.1601 8.90243 17.3594 9.03535 17.5273 9.20302C17.6952 9.37069 17.8284 9.56982 17.9193 9.78901C18.0102 10.0082 18.057 10.2432 18.057 10.4804C18.057 10.7177 18.0102 10.9527 17.9193 11.1719C17.8284 11.3911 17.6952 11.5902 17.5273 11.7579C17.3594 11.9255 17.1601 12.0585 16.9408 12.149C16.7214 12.2396 16.4864 12.2861 16.2491 12.2857L16.2491 12.2857ZM16.2491 9.75516C16.1057 9.75508 15.9654 9.79757 15.8461 9.87724C15.7269 9.95691 15.6339 10.0702 15.579 10.2027C15.5241 10.3353 15.5098 10.4811 15.5378 10.6218C15.5659 10.7625 15.635 10.8916 15.7365 10.993C15.875 11.1242 16.0585 11.1973 16.2493 11.1973C16.44 11.1973 16.6235 11.1243 16.7621 10.9932C16.8635 10.8918 16.9326 10.7625 16.9606 10.6218C16.9886 10.4811 16.9742 10.3353 16.9193 10.2028C16.8644 10.0702 16.7714 9.95696 16.6521 9.87728C16.5328 9.79761 16.3926 9.7551 16.2491 9.75514V9.75516Z" fill="#C21B17"/>
</g>
<defs>
<clipPath id="clip0_48_90126">
<rect width="18" height="18" fill="white" transform="translate(0 0.5)"/>
</clipPath>
</defs>
</svg>
