<svg width="18" height="19" viewBox="0 0 18 19" fill="none" xmlns="http://www.w3.org/2000/svg">
<g clip-path="url(#clip0_48_90119)">
<path d="M3.2403 14.4619C3.11754 14.4621 2.99914 14.4164 2.90828 14.3339C2.25596 13.7427 1.73459 13.0215 1.37768 12.2168C1.02078 11.412 0.836241 10.5415 0.835938 9.66113C0.835634 8.78078 1.01957 7.9101 1.37592 7.1051C1.73227 6.3001 2.25315 5.57858 2.90506 4.98694C2.95311 4.94296 3.00937 4.9089 3.07062 4.88673C3.13186 4.86455 3.19689 4.85469 3.26195 4.85771C3.32702 4.86073 3.39085 4.87657 3.44978 4.90433C3.50871 4.93209 3.56157 4.97121 3.60534 5.01945C3.64911 5.06769 3.68292 5.12411 3.70482 5.18545C3.72673 5.24679 3.7363 5.31186 3.733 5.37691C3.72969 5.44197 3.71356 5.50573 3.68555 5.56453C3.65753 5.62334 3.61818 5.67603 3.56974 5.71958C3.02012 6.21845 2.58097 6.82681 2.28053 7.50556C1.98009 8.1843 1.825 8.9184 1.82525 9.66066C1.82549 10.4029 1.98105 11.1369 2.28194 11.8155C2.58283 12.494 3.02237 13.1021 3.57232 13.6006C3.64643 13.6677 3.69847 13.7556 3.72161 13.8528C3.74475 13.95 3.7379 14.052 3.70195 14.1452C3.66601 14.2385 3.60266 14.3186 3.52025 14.3752C3.43784 14.4317 3.34024 14.4619 3.2403 14.4619ZM5.27883 12.3849C5.16278 12.385 5.05042 12.3441 4.96162 12.2694C4.58676 11.9465 4.28746 11.5451 4.08489 11.0936C3.88232 10.6422 3.78144 10.1518 3.78937 9.65703C3.78197 9.16276 3.88327 8.6729 4.08611 8.22211C4.28896 7.77132 4.58838 7.37061 4.96321 7.04833C5.01303 7.00648 5.07061 6.97486 5.13266 6.9553C5.19472 6.93574 5.26002 6.92861 5.32483 6.93432C5.38964 6.94003 5.45269 6.95848 5.51036 6.98859C5.56804 7.01871 5.6192 7.05991 5.66092 7.10983C5.70265 7.15976 5.73412 7.21742 5.75352 7.27952C5.77293 7.34162 5.77989 7.40694 5.77401 7.47174C5.76813 7.53654 5.74953 7.59954 5.71926 7.65713C5.689 7.71473 5.64767 7.76579 5.59764 7.80739C5.33401 8.03705 5.12403 8.3218 4.98252 8.64152C4.84101 8.96123 4.77143 9.30812 4.77868 9.65768C4.77108 10.0076 4.84039 10.355 4.98174 10.6752C5.12308 10.9955 5.33299 11.2808 5.59667 11.511C5.67458 11.5762 5.73052 11.6638 5.75688 11.7619C5.78325 11.8601 5.77877 11.9639 5.74404 12.0594C5.70931 12.1548 5.64603 12.2373 5.56279 12.2955C5.47956 12.3538 5.3804 12.385 5.27881 12.3849H5.27883Z" fill="#C21B17"/>
<path d="M14.9997 14.4621C14.8998 14.4621 14.8022 14.4319 14.7199 14.3754C14.6375 14.3189 14.5741 14.2388 14.5382 14.1456C14.5022 14.0524 14.4953 13.9505 14.5183 13.8533C14.5414 13.7562 14.5933 13.6682 14.6674 13.6011C15.217 13.1023 15.6561 12.4939 15.9566 11.8152C16.257 11.1364 16.4121 10.4023 16.4119 9.66005C16.4116 8.91778 16.256 8.18378 15.9552 7.50524C15.6543 6.82669 15.2147 6.21862 14.6648 5.72011C14.6166 5.67652 14.5775 5.62386 14.5496 5.56514C14.5218 5.50643 14.5058 5.4428 14.5026 5.3779C14.4993 5.313 14.5089 5.2481 14.5308 5.1869C14.5526 5.12571 14.5863 5.06942 14.63 5.02126C14.6736 4.97309 14.7263 4.93399 14.785 4.90619C14.8437 4.87839 14.9074 4.86244 14.9723 4.85924C15.0372 4.85604 15.1021 4.86567 15.1632 4.88756C15.2244 4.90945 15.2807 4.94318 15.3288 4.98682C15.9811 5.57801 16.5025 6.29917 16.8594 7.10393C17.2163 7.90869 17.4009 8.77923 17.4012 9.65958C17.4015 10.5399 17.2175 11.4106 16.8612 12.2156C16.5048 13.0206 15.984 13.7421 15.332 14.3338C15.2412 14.4165 15.1226 14.4623 14.9997 14.4621ZM12.957 12.3875C12.8554 12.3876 12.7562 12.3564 12.6729 12.2981C12.5896 12.2398 12.5263 12.1573 12.4916 12.0618C12.4569 11.9663 12.4525 11.8624 12.479 11.7642C12.5054 11.6661 12.5614 11.5785 12.6395 11.5133C12.9031 11.2837 13.1131 10.9989 13.2546 10.6792C13.3961 10.3595 13.4657 10.0126 13.4584 9.66304C13.466 9.3131 13.3967 8.96576 13.2554 8.64554C13.114 8.32533 12.9041 8.04005 12.6404 7.80985C12.5905 7.76817 12.5494 7.71708 12.5192 7.65948C12.4891 7.60188 12.4706 7.53891 12.4649 7.47417C12.4591 7.40943 12.4662 7.34418 12.4856 7.28217C12.5051 7.22015 12.5366 7.16258 12.5783 7.11275C12.62 7.06292 12.6712 7.0218 12.7288 6.99174C12.7865 6.96169 12.8494 6.94329 12.9142 6.93759C12.9789 6.9319 13.0442 6.93902 13.1062 6.95856C13.1682 6.97809 13.2257 7.00965 13.2755 7.05144C13.6503 7.37433 13.9497 7.77567 14.1522 8.22706C14.3548 8.67844 14.4557 9.16883 14.4477 9.66352C14.4551 10.1578 14.3538 10.6477 14.151 11.0985C13.9481 11.5493 13.6487 11.9501 13.2739 12.2724C13.1851 12.3468 13.0729 12.3876 12.957 12.3875V12.3875Z" fill="#C21B17"/>
<path d="M11.0092 11.1759H7.22903C7.09784 11.1759 6.97203 11.1238 6.87926 11.031C6.7865 10.9383 6.73438 10.8125 6.73438 10.6813V8.64114C6.73438 8.50995 6.7865 8.38414 6.87926 8.29137C6.97203 8.19861 7.09784 8.14649 7.22903 8.14648H11.0092C11.1403 8.14649 11.2662 8.19861 11.3589 8.29137C11.4517 8.38414 11.5038 8.50995 11.5038 8.64114V10.6813C11.5038 10.8125 11.4517 10.9383 11.3589 11.031C11.2662 11.1238 11.1403 11.1759 11.0092 11.1759ZM7.72369 10.1866H10.5145V9.1358H7.72369V10.1866Z" fill="#C21B17"/>
</g>
<defs>
<clipPath id="clip0_48_90119">
<rect width="16.4886" height="16.4886" fill="white" transform="translate(0.916016 1.41602)"/>
</clipPath>
</defs>
</svg>
