<svg width="19" height="19" viewBox="0 0 19 19" fill="none" xmlns="http://www.w3.org/2000/svg">
<path fill-rule="evenodd" clip-rule="evenodd" d="M9.68445 3.52648C10.0323 3.87429 10.0323 4.43821 9.68445 4.78602L4.97047 9.5L9.68445 14.214C10.0323 14.5618 10.0323 15.1257 9.68445 15.4735C9.33664 15.8213 8.77273 15.8213 8.42492 15.4735L3.08117 10.1298C2.73336 9.78196 2.73336 9.21804 3.08117 8.87023L8.42492 3.52648C8.77273 3.17867 9.33664 3.17867 9.68445 3.52648Z" fill="#20252B"/>
<path fill-rule="evenodd" clip-rule="evenodd" d="M3.5625 9.5C3.5625 9.00812 3.96125 8.60938 4.45313 8.60938H15.2891C15.7809 8.60938 16.1797 9.00812 16.1797 9.5C16.1797 9.99188 15.7809 10.3906 15.2891 10.3906H4.45313C3.96125 10.3906 3.5625 9.99188 3.5625 9.5Z" fill="#20252B"/>
</svg>
