<svg width="20" height="20" viewBox="0 0 20 20" fill="none" xmlns="http://www.w3.org/2000/svg">
<path fill-rule="evenodd" clip-rule="evenodd" d="M5.3125 5.625C5.3125 5.10723 5.73223 4.6875 6.25 4.6875H17.5C18.0178 4.6875 18.4375 5.10723 18.4375 5.625C18.4375 6.14277 18.0178 6.5625 17.5 6.5625H6.25C5.73223 6.5625 5.3125 6.14277 5.3125 5.625Z" fill="white"/>
<path fill-rule="evenodd" clip-rule="evenodd" d="M5.3125 10C5.3125 9.48223 5.73223 9.0625 6.25 9.0625H17.5C18.0178 9.0625 18.4375 9.48223 18.4375 10C18.4375 10.5178 18.0178 10.9375 17.5 10.9375H6.25C5.73223 10.9375 5.3125 10.5178 5.3125 10Z" fill="white"/>
<path fill-rule="evenodd" clip-rule="evenodd" d="M5.3125 14.375C5.3125 13.8572 5.73223 13.4375 6.25 13.4375H17.5C18.0178 13.4375 18.4375 13.8572 18.4375 14.375C18.4375 14.8928 18.0178 15.3125 17.5 15.3125H6.25C5.73223 15.3125 5.3125 14.8928 5.3125 14.375Z" fill="white"/>
<path fill-rule="evenodd" clip-rule="evenodd" d="M1.875 5.625C1.875 4.93464 2.43464 4.375 3.125 4.375C3.81536 4.375 4.375 4.93464 4.375 5.625C4.375 6.31536 3.81536 6.875 3.125 6.875C2.43464 6.875 1.875 6.31536 1.875 5.625Z" fill="white"/>
<path fill-rule="evenodd" clip-rule="evenodd" d="M1.875 10C1.875 9.30964 2.43464 8.75 3.125 8.75C3.81536 8.75 4.375 9.30964 4.375 10C4.375 10.6904 3.81536 11.25 3.125 11.25C2.43464 11.25 1.875 10.6904 1.875 10Z" fill="white"/>
<path fill-rule="evenodd" clip-rule="evenodd" d="M1.875 14.375C1.875 13.6846 2.43464 13.125 3.125 13.125C3.81536 13.125 4.375 13.6846 4.375 14.375C4.375 15.0654 3.81536 15.625 3.125 15.625C2.43464 15.625 1.875 15.0654 1.875 14.375Z" fill="white"/>
</svg>
