<svg width="702" height="667" viewBox="0 0 702 667" fill="none" xmlns="http://www.w3.org/2000/svg">
<path fill-rule="evenodd" clip-rule="evenodd" d="M564.43 133.14L566.825 128.602L570.994 131.769C573.877 133.954 577.037 136.42 580.355 138.466C583.58 140.463 586.569 141.815 589.287 142.247L597.572 143.555C597.572 143.555 574.477 171.095 562.59 161.613C561.145 160.461 559.265 158.283 559.265 158.283C557.86 150.321 560.624 140.357 564.43 133.14ZM64.3833 423.801L295.088 315.399C298.663 323.323 303.439 324.018 305.827 331.942C267.646 357.974 224.695 379.487 184.132 405.518L147.152 462.12C139.988 479.101 144.764 518.721 144.764 520.981C145.951 523.253 148.346 527.778 151.921 525.519C155.503 525.519 174.587 505.139 174.587 506.272C173.393 494.949 168.617 485.898 166.236 475.708C179.363 455.329 192.484 434.955 209.186 416.841C209.186 416.841 329.687 370.43 335.651 365.898C342.808 364.771 343.943 364.828 345.196 365.898C453.111 458.464 517.936 396.962 539.54 439.161C560.3 479.702 590.968 497.221 620.798 532.303C626.754 547.025 619.597 562.873 616.022 575.322C586.192 602.493 545.629 629.658 538.471 667H590.968L583.804 645.494L633.912 584.379C644.651 576.462 656.585 570.797 660.16 558.341L641.076 468.917C641.076 467.778 641.076 462.12 643.464 459.86C644.651 457.601 698.348 407.778 700.723 365.898C703.111 339.86 693.565 314.961 670.899 296.847C647.039 271.942 599.319 283.259 568.295 273.075C562.332 268.544 569.489 261.752 570.683 254.961C571.877 239.113 565.914 221.005 565.914 205.151C568.295 194.961 580.228 196.1 588.58 191.569C608.864 181.385 638.688 178.425 643.464 153.519L698.348 127.488V108.929C678.057 116.86 660.16 127.043 641.076 134.974C630.336 119.119 613.634 107.803 600.506 94.2204C582.616 78.3723 564.72 71.5748 538.471 72.7077C513.417 54.5938 511.029 20.638 480.012 9.31524C460.921 1.39118 441.831 0.264535 427.516 13.8469C419.164 21.7709 413.201 31.9545 414.395 42.1381C414.395 45.5368 415.582 45.5368 417.97 46.6698L425.128 39.8849C435.867 30.8279 452.57 25.1634 464.497 30.8279C482.4 39.8849 496.715 59.1254 494.327 78.3723C491.945 97.6128 464.497 93.0875 452.57 106.67C435.867 121.391 447.794 144.024 450.182 162.138C451.376 179.119 457.339 200.626 448.994 216.474C445.413 219.872 440.643 218.74 437.061 214.214C408.425 167.803 412 108.929 386.953 61.3912C370.25 37.6128 342.808 30.8279 317.754 28.5621C304.627 27.4292 302.245 -3.14043 296.282 0.264535C292.799 4.66471 292.7 24.0805 292.7 24.0805C287.931 19.5051 284.349 4.78989 280.767 9.31524C272.415 24.0305 287.931 43.2773 271.221 56.8596C268.84 84.0305 241.398 102.138 230.659 127.043C227.083 134.974 231.859 144.024 236.628 153.081C242.592 155.341 249.756 148.55 253.331 153.081C262.87 154.214 270.034 149.689 275.997 141.759C292.7 138.366 308.209 129.309 324.911 122.518C326.105 128.182 327.299 134.974 326.105 141.759C316.56 192.702 286.737 240.246 292.7 294.588L290.319 299.113L64.159 402.314C63.0904 389.658 68.3083 376.338 73.8099 365.898C82.1613 351.183 98.864 345.525 115.567 342.126C133.457 336.474 157.324 345.525 168.063 325.151C168.063 324.018 169.25 322.885 168.063 322.885C148.972 317.227 133.457 318.354 113.185 316.094C108.409 312.695 109.603 307.037 113.185 305.904C133.457 292.322 156.13 290.056 177.608 278.733C177.608 273.075 175.214 264.024 172.832 261.752C151.36 264.024 132.269 266.284 110.791 266.284L59.4952 244.778C30.8591 241.379 8.4635 266.985 0 290.056V516.462L6.99905 523.253C10.5744 541.36 11.7684 560.607 16.5444 579.854C21.3138 592.303 34.4345 603.626 48.7559 605.886C61.8766 627.386 74.9973 647.759 96.476 667H386.392C425.761 643.234 443.658 609.285 450.815 570.797C457.973 525.519 438.888 481.367 394.744 455.329C368.496 440.62 332.702 438.348 302.879 447.405C273.049 459.86 246.801 487.025 240.837 516.462C236.061 544.759 237.255 576.462 257.54 597.962C280.213 603.626 310.036 603.626 329.127 586.645C319.581 573.063 310.036 557.215 317.193 539.101C320.769 531.177 329.127 528.911 337.472 532.303C348.211 535.702 352.987 545.892 354.181 556.082C355.368 573.063 348.211 588.911 335.09 599.101C307.648 621.734 268.279 614.943 237.255 605.886C154.942 583.253 64.3833 524.93 64.3833 423.801V423.801Z" fill="white"/>
</svg>
