<svg width="16" height="21" viewBox="0 0 16 21" fill="none" xmlns="http://www.w3.org/2000/svg">
<path d="M15 8C15 8.99505 14.5864 10.2534 13.8618 11.6547C13.148 13.0348 12.1848 14.4549 11.2037 15.7465C10.2252 17.0346 9.24428 18.1748 8.50682 18.9939C8.32073 19.2006 8.15045 19.3865 8 19.5488C7.84955 19.3865 7.67927 19.2006 7.49318 18.9939C6.75572 18.1748 5.77479 17.0346 4.79631 15.7465C3.81519 14.4549 2.85202 13.0348 2.13824 11.6547C1.41356 10.2534 1 8.99505 1 8C1 3.58537 4.58614 1 8 1C11.4139 1 15 3.58537 15 8Z" stroke="#C5281C" stroke-width="2" stroke-linecap="square"/>
<path d="M6 8C6 6.89528 6.89528 6 8 6C9.10472 6 10 6.89528 10 8C10 9.10472 9.10472 10 8 10C6.89528 10 6 9.10472 6 8Z" stroke="#C5281C" stroke-width="2" stroke-linecap="square"/>
</svg>
